# xmcd CD database file
#
# Track frame offsets:
#	150
#	13087
#	23407
#	38675
#	51445
#	64477
#	80942
#	95470
#	113717
#	126840
#	142962
#	163630
#	182840
#	200000
#	219577
#	239975
#	256882
#	275637
#	295902
#
# Disc length: 4126 seconds
#
# Revision: 2
# Processed by: cddbd v1.5.2PL0 Copyright (c) Steve Scherf et al.
# Submitted via: CDex 1.70beta2
#
DISCID=26101c13
DTITLE=Various Artist - 結婚しようよ [フォーク&ポップス大全集13]
DYEAR=1999
DGENRE=Pop-Folk
TTITLE0=伊東きよ子/花と小父さん
TTITLE1=ヴィレッジ・シンガーズ/バラ色の雲
TTITLE2=カルメン・マキ/時には母のない子のように
TTITLE3=よしだたくろう/結婚しようよ
TTITLE4=よしだたくろう/旅の宿
TTITLE5=ふきのとう/白い冬
TTITLE6=本田路津子/秋でもないのに
TTITLE7=河島英五/酒と泪と男と女
TTITLE8=森田公一とトップギャラン/青春時代
TTITLE9=紙ふうせん/冬が来る前に
TTITLE10=バンバン/「いちご白書」をもう一度
TTITLE11=山本コウタロー＆ウィークエンド/岬めぐり
TTITLE12=太田裕美/木綿のハンカチーフ
TTITLE13=岸田智史/きみの朝
TTITLE14=猫/地下鉄にのって
TTITLE15=久保田早紀/異邦人
TTITLE16=五輪真弓/恋人よ
TTITLE17=ばんばひろふみ/Sachiko
TTITLE18=渡辺真知子/迷い道
EXTD=YEAR: 1999
EXTT0=
EXTT1=
EXTT2=
EXTT3=
EXTT4=
EXTT5=
EXTT6=
EXTT7=
EXTT8=
EXTT9=
EXTT10=
EXTT11=
EXTT12=
EXTT13=
EXTT14=
EXTT15=
EXTT16=
EXTT17=
EXTT18=
PLAYORDER=
